<?xml version="1.0" encoding="UTF-8" standalone="no"?>
<svg
   xmlns:dc="http://purl.org/dc/elements/1.1/"
   xmlns:cc="http://creativecommons.org/ns#"
   xmlns:rdf="http://www.w3.org/1999/02/22-rdf-syntax-ns#"
   xmlns:svg="http://www.w3.org/2000/svg"
   xmlns="http://www.w3.org/2000/svg"
   xmlns:sodipodi="http://sodipodi.sourceforge.net/DTD/sodipodi-0.dtd"
   xmlns:inkscape="http://www.inkscape.org/namespaces/inkscape"
   width="200"
   height="160"
   id="svg2"
   version="1.1"
   inkscape:version="0.91 r13725"
   sodipodi:docname="baby-feet.svg">
  <metadata
     id="metadata29">
    <rdf:RDF>
      <cc:Work
         rdf:about="">
        <dc:format>image/svg+xml</dc:format>
        <dc:type
           rdf:resource="http://purl.org/dc/dcmitype/StillImage" />
        <dc:title>Baby feet</dc:title>
      </cc:Work>
    </rdf:RDF>
  </metadata>
  <defs
     id="defs27" />
  <sodipodi:namedview
     pagecolor="#ffffff"
     bordercolor="#666666"
     borderopacity="1"
     objecttolerance="10"
     gridtolerance="10"
     guidetolerance="10"
     inkscape:pageopacity="0"
     inkscape:pageshadow="2"
     inkscape:window-width="1920"
     inkscape:window-height="1016"
     id="namedview25"
     showgrid="false"
     inkscape:snap-grids="false"
     showborder="true"
     inkscape:zoom="1.0074671"
     inkscape:cx="4.7877291"
     inkscape:cy="200.86386"
     inkscape:window-x="0"
     inkscape:window-y="0"
     inkscape:window-maximized="1"
     inkscape:current-layer="svg2" />
  <title
     id="title4">Baby feet</title>
  <g
     id="g6"
     transform="matrix(0.37946682,-0.07506094,0.07506094,0.37946682,-50.675103,-5.2292044)">
    <title
       id="title8">Layer 1</title>
    <g
       transform="matrix(0.92612492,-0.37721694,0.37721694,0.92612492,-83.270587,122.6382)"
       id="svg_8">
      <path
         d="m 306.24799,280.09799 c 51.77102,-5.73898 43.07501,-90.31599 1.362,-113.35499 -27.63599,-15.264 -64.945,-14.598 -89.91899,-4.305 -47.37,19.523 -59.945,44.48101 -66.758,93.26799 -6.812,48.78601 16.013,177.83701 70.845,192.27402 49.04701,12.914 67.97499,-12.12701 62.67101,-35.87201 -5.45002,-24.393 -32.31101,-55.991 -34.06,-77.48401 -4.08701,-50.22098 55.85898,-54.526 55.85898,-54.526 z"
         id="svg_1"
         inkscape:connector-curvature="0"
         style="fill:#aad4ff" />
      <path
         d="m 399.328,176.731 c -12.62701,17.485 -36.58801,22.65 -53.51599,11.53701 -16.92901,-11.112 -20.41601,-34.295 -7.789,-51.78 12.62799,-17.48501 36.58798,-22.65001 53.517,-11.53701 16.92798,11.113 20.41598,34.295 7.78799,51.78 z"
         id="svg_2"
         inkscape:connector-curvature="0"
         style="fill:#aad4ff" />
      <path
         d="m 309.289,147.66 c -13.35101,2.129 -25.95801,-5.961 -28.16,-18.07 -2.20301,-12.108 6.319,-30.308002 19.669,-32.436999 13.349,-2.128998 25.957,5.960999 28.159,18.069999 2.203,12.109 -6.32001,30.30801 -19.668,32.437 z"
         id="svg_3"
         inkscape:connector-curvature="0"
         style="fill:#aad4ff" />
      <path
         d="m 265.996,138.91701 c -7.55899,10.03898 -18.63501,11.97099 -29.703,4.66499 -11.06799,-7.30501 -13.67101,-28.14 -6.112,-38.18 7.559,-10.039001 18.63499,-11.971001 29.703,-4.665 11.06699,7.305 13.67099,28.141 6.112,38.18001 z"
         id="svg_4"
         inkscape:connector-curvature="0"
         style="fill:#aad4ff" />
      <path
         d="M 219.76601,146.45799 C 217.444,156.93401 205.821,163.532 193.804,161.19701 181.78799,158.86099 172.019,142.976 174.34199,132.50101 176.664,122.026 188.287,115.427 200.302,117.763 c 12.01599,2.335 21.786,18.22 19.46401,28.69499 z"
         id="svg_5"
         inkscape:connector-curvature="0"
         style="fill:#aad4ff" />
      <path
         d="m 170.951,161.45799 c 6.835,9.54401 5.536,21.57401 -2.90001,26.87001 -8.43598,5.295 -20.81399,1.851 -27.64799,-7.69301 -6.834,-9.54399 -5.535,-21.57499 2.901,-26.86999 8.435,-5.295 20.814,-1.851 27.647,7.69299 z"
         id="svg_6"
         inkscape:connector-curvature="0"
         style="fill:#aad4ff" />
    </g>
    <g
       transform="matrix(0.72478542,0.68897467,-0.68897467,0.72478542,339.88338,-194.41913)"
       id="svg_9">
      <path
         d="m 389.05099,325.224 c -50.949,-5.73999 -42.39099,-90.317 -1.341,-113.356 27.19702,-15.264 63.913,-14.597 88.491,-4.305 46.61798,19.523 58.99298,44.482 65.69702,93.26799 6.70398,48.78702 -15.758,177.83701 -69.72,192.27402 -48.267,12.914 -66.89502,-12.12601 -61.67502,-35.87201 5.36301,-24.393 31.798,-55.991 33.51901,-77.483 4.02301,-50.22199 -54.97101,-54.526 -54.97101,-54.526 z"
         transform="matrix(0.97432686,-0.22513812,0.22513812,0.97432686,-66.914951,109.90383)"
         id="svg_10"
         inkscape:connector-curvature="0"
         style="fill:#aad4ff" />
      <path
         d="m 267.54098,252.823 c 12.42701,17.48401 36.00702,22.64999 52.66703,11.53698 16.66,-11.11198 20.091,-34.29498 7.664,-51.77998 -12.427,-17.485 -36.00601,-22.65001 -52.66602,-11.537 -16.65899,11.112 -20.09199,34.295 -7.66501,51.78 z"
         transform="matrix(0.97432686,-0.22513812,0.22513812,0.97432686,-44.746817,72.999133)"
         id="svg_11"
         inkscape:connector-curvature="0"
         style="fill:#aad4ff" />
      <path
         d="m 346.84201,210.532 c 13.138,2.128 25.54498,-5.961 27.71298,-18.06999 2.168,-12.10901 -6.21899,-30.30901 -19.35699,-32.43702 -13.137,-2.12999 -25.54401,5.961 -27.71201,18.07001 -2.16699,12.108 6.22,30.308 19.35602,32.437 z"
         transform="matrix(0.97432686,-0.22513812,0.22513812,0.97432686,-32.701354,83.78465)"
         id="svg_12"
         inkscape:connector-curvature="0"
         style="fill:#aad4ff" />
      <path
         d="m 387.953,189.175 c 7.439,10.04 18.33899,11.971 29.23099,4.666 10.892,-7.306 13.45401,-28.141 6.01502,-38.181 -7.439,-10.03801 -18.33902,-11.97 -29.23102,-4.66501 -10.892,7.306 -13.45398,28.14101 -6.01499,38.18001 z"
         transform="matrix(0.97432686,-0.22513812,0.22513812,0.97432686,-28.40548,95.736903)"
         id="svg_13"
         inkscape:connector-curvature="0"
         style="fill:#aad4ff" />
      <path
         d="m 436.05801,184.965 c 2.28598,10.475 13.724,17.074 25.54999,14.73899 11.82501,-2.33599 21.439,-18.22099 19.15299,-28.69599 -2.28498,-10.475 -13.72299,-17.07399 -25.54798,-14.739 -11.82501,2.336 -21.44,18.22101 -19.155,28.696 z"
         transform="matrix(0.97432686,-0.22513812,0.22513812,0.97432686,-28.302634,107.7748)"
         id="svg_14"
         inkscape:connector-curvature="0"
         style="fill:#aad4ff" />
      <path
         d="m 490.159,189.987 c -6.72501,9.54401 -5.44699,21.574 2.85501,26.86999 8.30099,5.295 20.483,1.851 27.20901,-7.694 6.72498,-9.54399 5.44599,-21.57399 -2.85504,-26.86898 -8.30197,-5.29502 -20.48398,-1.85102 -27.20898,7.69299 z"
         transform="matrix(0.97432686,-0.22513812,0.22513812,0.97432686,-31.962126,118.86124)"
         id="svg_15"
         inkscape:connector-curvature="0"
         style="fill:#aad4ff" />
    </g>
    <text
       xml:space="preserve"
       y="633"
       x="611"
       stroke-linejoin="null"
       stroke-linecap="null"
       font-size="24"
       id="svg_16"
       style="font-size:24px;font-family:Arial;text-anchor:middle;fill:#000000;stroke-width:0;stroke-dasharray:none" />
  </g>
  <path
     style="fill:#ffffff;stroke:none;stroke-width:1px;stroke-linecap:butt;stroke-linejoin:miter;stroke-opacity:1"
     d="M 81.514804,144.54631 C 67.425125,140.77094 46.482277,123.13454 34.306897,104.79155 29.597032,97.695838 24.812503,85.299384 24.207175,78.623718 22.403739,58.735108 42.796573,36.757388 63.151921,36.652274 c 14.44845,-0.07461 29.048725,14.925847 26.973658,27.712987 -0.409958,2.526274 -2.164965,5.244091 -5.946184,9.208303 -8.327872,8.730905 -10.91671,15.48177 -8.613375,22.460941 1.91344,5.797785 6.545548,10.118865 16.7363,15.612555 11.53062,6.21598 16.7304,10.67917 17.55355,15.06693 1.35114,7.20218 -5.38081,14.85846 -15.780007,17.94669 -5.883919,1.74733 -5.603664,1.74988 -12.561059,-0.11437 z"
     id="path3357"
     inkscape:connector-curvature="0" />
  <path
     style="fill:#ffffff"
     d="m 74.906697,33.959537 c -5.506146,-1.669914 -9.571082,-7.484399 -9.571082,-13.690476 0,-4.389298 4.060505,-11.1493009 7.94996,-13.2352383 10.187882,-5.4638208 20.884387,2.1239344 19.559857,13.8751313 -1.031569,9.152054 -9.788116,15.522517 -17.938735,13.050583 z"
     id="path4159"
     inkscape:connector-curvature="0" />
  <path
     style="fill:#ffffff"
     d="m 107.44489,45.922734 c -14.628218,-7.4347 -8.283311,-30.218005 7.44332,-26.727471 4.97372,1.10392 8.26979,3.978153 10.38413,9.055148 2.41297,5.794057 1.55896,10.677339 -2.67534,15.297764 -4.12483,4.500968 -9.35543,5.320681 -15.15211,2.374559 z"
     id="path4161"
     inkscape:connector-curvature="0" />
  <path
     style="fill:#ffffff"
     d="m 133.99723,35.650355 c -3.16812,-3.372306 -3.02134,-10.826032 0.27815,-14.125528 4.07582,-4.075813 11.30244,-2.646165 13.50519,2.671741 1.58171,3.818602 0.51354,9.857517 -2.12508,12.014054 -3.11247,2.543821 -9.0083,2.260482 -11.65826,-0.560267 z"
     id="path4163"
     inkscape:connector-curvature="0" />
  <path
     style="fill:#ffffff"
     d="m 154.33789,43.093609 c -4.40701,-4.869699 -1.90877,-13.443083 4.64585,-15.943427 3.16847,-1.208655 3.8822,-1.173727 6.13148,0.300058 3.43414,2.250138 4.55415,5.54193 3.3587,9.871492 -1.8178,6.583541 -10.27603,10.03712 -14.13603,5.771877 z"
     id="path4165"
     inkscape:connector-curvature="0" />
  <path
     style="fill:#ffffff"
     d="m 170.37229,53.804083 c -2.40364,-2.403631 -2.87605,-3.542383 -2.36775,-5.707383 1.62465,-6.91984 11.26975,-9.77752 15.37704,-4.555954 3.38951,4.309068 2.50548,7.863886 -2.87843,11.574604 -3.60165,2.482341 -6.74398,2.07562 -10.13086,-1.311267 z"
     id="path4167"
     inkscape:connector-curvature="0" />
  <path
     style="fill:#ffffff"
     d="m 183.7575,71.613813 c -2.74828,-1.016656 -4.56775,-4.377785 -3.75538,-6.937348 1.8961,-5.974078 10.85305,-8.152358 13.96879,-3.397132 1.37786,2.102886 1.43813,2.949959 0.38994,5.480533 -0.68191,1.646262 -1.64289,3.242305 -2.13551,3.546762 -2.22722,1.376502 -6.49818,2.035811 -8.46784,1.307185 z"
     id="path4169"
     inkscape:connector-curvature="0" />
  <path
     style="fill:#ffffff"
     d="m 123.22972,157.05647 c -9.29557,-1.93287 -14.22022,-6.56761 -14.22022,-13.3831 0,-5.28401 3.12321,-9.75504 12.85786,-18.40669 10.49774,-9.32984 13.97968,-16.28116 11.94332,-23.8436 -1.33022,-4.940071 -5.72415,-10.004051 -12.74429,-14.687735 -7.5931,-5.06595 -9.36272,-7.773092 -9.36272,-14.322951 0,-9.420595 6.96402,-20.767512 15.46682,-25.201081 7.67169,-4.000202 19.83514,-3.347847 29.97954,1.607876 7.0624,3.450109 16.10495,12.148443 19.43423,18.694444 3.39883,6.682745 3.81691,18.928653 1.02902,30.140593 -4.04444,16.265394 -17.65356,39.548004 -29.59229,50.626774 -8.56248,7.94572 -16.04462,10.5942 -24.79127,8.77547 z"
     id="path4171"
     inkscape:connector-curvature="0" />
  <path
     style="fill:#ffffff"
     d="m 46.000808,29.621551 c -2.891991,-2.89199 -4.162651,-8.773911 -2.624632,-12.149494 0.615738,-1.351398 2.643714,-3.093935 4.506614,-3.872304 9.413954,-3.9334017 16.907078,8.17235 9.588471,15.490957 -3.672581,3.672582 -8.122763,3.878532 -11.470453,0.530841 z"
     id="path4173"
     inkscape:connector-curvature="0" />
  <path
     style="fill:#ffffff"
     d="M 30.423917,42.061909 C 28.644436,41.163877 26.354661,38.984547 25.335528,37.218956 23.7845,34.531883 23.66237,33.463957 24.586034,30.665227 c 1.066783,-3.232385 4.313356,-5.621223 7.639576,-5.621223 2.804237,0 7.249002,3.341254 8.804032,6.618236 3.582864,7.550326 -3.156662,14.158913 -10.605725,10.399669 z"
     id="path4175"
     inkscape:connector-curvature="0" />
  <path
     style="fill:#ffffff"
     d="m 16.102899,57.374649 c -3.358942,-1.462233 -4.367052,-3.199356 -4.367052,-7.525077 0,-6.895603 10.700985,-9.203259 15.70426,-3.386607 2.792079,3.245986 2.299609,6.786045 -1.40445,10.095717 -2.835653,2.53373 -5.486582,2.7515 -9.932758,0.815967 z"
     id="path4177"
     inkscape:connector-curvature="0" />
  <path
     style="fill:#ffffff"
     d="M 10.246965,75.512421 C 5.1301156,72.713722 4.3618332,67.992576 8.4942706,64.742001 11.89477,62.067167 16.255208,62.684777 19.428406,66.290706 c 2.857214,3.246854 2.81454,4.913967 -0.203029,7.931536 -2.599845,2.599845 -5.755021,3.053237 -8.978412,1.290179 z"
     id="path4179"
     inkscape:connector-curvature="0" />
</svg>
